<svg width="43" height="38" viewBox="0 0 43 38" fill="none" xmlns="http://www.w3.org/2000/svg">
<path d="M9.42462 38H33.5934C36.2074 38 37.7354 36.5544 37.7354 34.0066V17.5093L40.11 19.6414C40.4964 20.0029 40.9198 20.2558 41.4351 20.2558C42.3003 20.2558 43 19.7318 43 18.8645C43 18.3224 42.7975 17.9791 42.4477 17.6719L36.0601 11.9438V1.301C36.0601 0.505906 35.5447 0 34.735 0H32.3236C31.532 0 30.9798 0.505906 30.9798 1.301V7.40842L23.7088 0.903492C23.0646 0.325269 22.2914 0 21.4999 0C20.7084 0 19.9353 0.325269 19.291 0.903492L0.552204 17.6719C0.220929 17.9791 0 18.3224 0 18.8645C0 19.7318 0.699464 20.2558 1.56464 20.2558C2.09847 20.2558 2.52179 20.0029 2.88998 19.6414L5.26452 17.5273V34.0066C5.26452 36.5544 6.7924 38 9.42462 38ZM10.0505 35.0908C8.87242 35.0908 8.22817 34.4584 8.22817 33.2839V14.8711L20.8557 3.57773C21.0398 3.39702 21.2606 3.28862 21.4999 3.28862C21.7392 3.28862 21.9601 3.37898 22.1626 3.57773L34.7719 14.8711V33.2839C34.7719 34.4584 34.1457 35.0908 32.9678 35.0908H10.0505ZM26.3963 18.7741C27.2983 18.5573 27.556 18.3585 27.556 17.3105V13.7147C27.556 13.028 27.3167 12.7389 26.3227 12.9557L20.8925 14.2748C19.9721 14.5098 19.7696 14.6904 19.7696 15.7746V23.9962C19.7696 24.8094 19.7144 24.9538 18.7572 25.2069L17.0453 25.6586C15.3702 26.0922 13.9528 27.068 13.9528 28.8569C13.9528 30.4109 15.1309 31.5312 17.0085 31.5312C19.6592 31.5312 21.4632 29.67 21.4632 27.0138V20.7437C21.4632 20.0571 21.6103 19.8944 22.0337 19.8041L26.3963 18.7741Z" fill="black" fill-opacity="0.8"/>
</svg>
