<svg width="27" height="25" viewBox="0 0 27 25" fill="none" xmlns="http://www.w3.org/2000/svg">
<path d="M26.2542 0.576806C25.6847 0.0398276 24.7613 0.0398276 24.1918 0.576806L13.5541 10.6066L2.91653 0.576806C2.34703 0.0398276 1.42365 0.0398276 0.854144 0.576806C0.284621 1.11377 0.284621 1.98438 0.854144 2.52135L11.4918 12.5511L0.854173 22.5808C0.28465 23.1179 0.28465 23.9884 0.854173 24.5254C1.42368 25.0624 2.34705 25.0624 2.91656 24.5254L13.5541 14.4956L24.1918 24.5254C24.7613 25.0624 25.6847 25.0624 26.2542 24.5254C26.8237 23.9884 26.8237 23.1179 26.2542 22.5809L15.6165 12.5511L26.2542 2.52135C26.8237 1.98438 26.8237 1.11377 26.2542 0.576806Z" fill="#268237"/>
</svg>
