<svg width="36" height="33" viewBox="0 0 36 33" fill="none" xmlns="http://www.w3.org/2000/svg">
<g clip-path="url(#clip0_73_3649)">
<path d="M1.99756 2.05469H17.3101C17.9138 2.05469 18.4038 1.59269 18.4038 1.02344C18.4038 0.454188 17.9138 -0.0078125 17.3101 -0.0078125H1.99756C1.39381 -0.0078125 0.903809 0.454188 0.903809 1.02344C0.903809 1.59269 1.39326 2.05469 1.99756 2.05469ZM1.99756 8.24219H17.3101C17.9138 8.24219 18.4038 7.78019 18.4038 7.21094C18.4038 6.64169 17.9138 6.17969 17.3101 6.17969H1.99756C1.39381 6.17969 0.903809 6.64169 0.903809 7.21094C0.903809 7.78019 1.39326 8.24219 1.99756 8.24219ZM18.4038 13.3984C18.4038 12.8292 17.9138 12.3672 17.3101 12.3672H1.99756C1.39381 12.3672 0.903809 12.8292 0.903809 13.3984C0.903809 13.9677 1.39381 14.4297 1.99756 14.4297H17.3101C17.9138 14.4297 18.4038 13.9677 18.4038 13.3984ZM35.4636 10.4589L24.7683 0.375232C24.4298 0.0555449 23.9256 -0.00633008 23.5176 0.181357C23.0889 0.321092 22.7788 0.700624 22.7788 1.15228V23.9816C21.6194 23.1716 20.098 22.6755 18.4251 22.6755C14.7999 22.6755 11.8593 24.9886 11.8593 27.8411C11.8593 30.694 14.7999 33.0081 18.4251 33.0081C22.0526 33.0081 24.9909 30.694 24.9909 27.8411C24.9909 27.7116 24.9783 27.5853 24.9663 27.4585V3.47884L33.9159 11.9176C34.343 12.3203 35.0359 12.3203 35.4631 11.9176C35.8902 11.5149 35.8902 10.8615 35.4636 10.4588V10.4589ZM22.7788 27.941C22.7001 29.375 20.9266 30.9321 18.3995 30.9321C15.8138 30.9321 14.0124 29.3028 14.0124 27.8425C14.0124 26.3813 15.8138 24.754 18.3995 24.754C20.9266 24.754 22.7001 26.3091 22.7788 27.7441V27.941Z" fill="black" stroke="black" stroke-width="0.0625"/>
</g>
<defs>
<clipPath id="clip0_73_3649">
<rect width="35" height="33" fill="white" transform="translate(0.84375)"/>
</clipPath>
</defs>
</svg>
