<svg width="35" height="30" viewBox="0 0 35 30" fill="none" xmlns="http://www.w3.org/2000/svg">
<g filter="url(#filter0_d_73_3645)">
<path d="M1.15381 1.86792H16.4663C17.0701 1.86792 17.5601 1.44792 17.5601 0.93042C17.5601 0.41292 17.0701 -0.00708008 16.4663 -0.00708008H1.15381C0.550059 -0.00708008 0.0600586 0.41292 0.0600586 0.93042C0.0600586 1.44792 0.549512 1.86792 1.15381 1.86792ZM1.15381 7.49292H16.4663C17.0701 7.49292 17.5601 7.07292 17.5601 6.55542C17.5601 6.03792 17.0701 5.61792 16.4663 5.61792H1.15381C0.550059 5.61792 0.0600586 6.03792 0.0600586 6.55542C0.0600586 7.07292 0.549512 7.49292 1.15381 7.49292ZM17.5601 12.1804C17.5601 11.6629 17.0701 11.2429 16.4663 11.2429H1.15381C0.550059 11.2429 0.0600586 11.6629 0.0600586 12.1804C0.0600586 12.6979 0.550059 13.1179 1.15381 13.1179H16.4663C17.0701 13.1179 17.5601 12.6979 17.5601 12.1804ZM34.6198 9.50808L23.9246 0.341143C23.5861 0.0505176 23.0819 -0.00573242 22.6739 0.164893C22.2451 0.291924 21.9351 0.636953 21.9351 1.04755V21.8015C20.7757 21.0651 19.2543 20.6141 17.5814 20.6141C13.9562 20.6141 11.0156 22.717 11.0156 25.3101C11.0156 27.9037 13.9561 30.0074 17.5814 30.0074C21.2088 30.0074 24.1472 27.9037 24.1472 25.3101C24.1472 25.1924 24.1346 25.0776 24.1226 24.9623V3.16261L33.0722 10.8342C33.4993 11.2003 34.1922 11.2003 34.6193 10.8342C35.0464 10.4681 35.0464 9.87414 34.6198 9.50805V9.50808ZM21.9351 25.401C21.8563 26.7046 20.0828 28.1201 17.5557 28.1201C14.9701 28.1201 13.1687 26.6389 13.1687 25.3114C13.1687 23.983 14.9701 22.5036 17.5557 22.5036C20.0828 22.5036 21.8563 23.9174 21.9351 25.2219V25.401Z" fill="white"/>
<path d="M1.15381 1.86792H16.4663C17.0701 1.86792 17.5601 1.44792 17.5601 0.93042C17.5601 0.41292 17.0701 -0.00708008 16.4663 -0.00708008H1.15381C0.550059 -0.00708008 0.0600586 0.41292 0.0600586 0.93042C0.0600586 1.44792 0.549512 1.86792 1.15381 1.86792ZM1.15381 7.49292H16.4663C17.0701 7.49292 17.5601 7.07292 17.5601 6.55542C17.5601 6.03792 17.0701 5.61792 16.4663 5.61792H1.15381C0.550059 5.61792 0.0600586 6.03792 0.0600586 6.55542C0.0600586 7.07292 0.549512 7.49292 1.15381 7.49292ZM17.5601 12.1804C17.5601 11.6629 17.0701 11.2429 16.4663 11.2429H1.15381C0.550059 11.2429 0.0600586 11.6629 0.0600586 12.1804C0.0600586 12.6979 0.550059 13.1179 1.15381 13.1179H16.4663C17.0701 13.1179 17.5601 12.6979 17.5601 12.1804ZM34.6198 9.50808L23.9246 0.341143C23.5861 0.0505176 23.0819 -0.00573242 22.6739 0.164893C22.2451 0.291924 21.9351 0.636953 21.9351 1.04755V21.8015C20.7757 21.0651 19.2543 20.6141 17.5814 20.6141C13.9562 20.6141 11.0156 22.717 11.0156 25.3101C11.0156 27.9037 13.9561 30.0074 17.5814 30.0074C21.2088 30.0074 24.1472 27.9037 24.1472 25.3101C24.1472 25.1924 24.1346 25.0776 24.1226 24.9623V3.16261L33.0722 10.8342C33.4993 11.2003 34.1922 11.2003 34.6193 10.8342C35.0464 10.4681 35.0464 9.87414 34.6198 9.50805V9.50808ZM21.9351 25.401C21.8563 26.7046 20.0828 28.1201 17.5557 28.1201C14.9701 28.1201 13.1687 26.6389 13.1687 25.3114C13.1687 23.983 14.9701 22.5036 17.5557 22.5036C20.0828 22.5036 21.8563 23.9174 21.9351 25.2219V25.401Z" stroke="white" stroke-width="0.0625"/>
</g>
<defs>
<filter id="filter0_d_73_3645" x="-3.97119" y="-0.0383301" width="42.9421" height="38.0769" filterUnits="userSpaceOnUse" color-interpolation-filters="sRGB">
<feFlood flood-opacity="0" result="BackgroundImageFix"/>
<feColorMatrix in="SourceAlpha" type="matrix" values="0 0 0 0 0 0 0 0 0 0 0 0 0 0 0 0 0 0 127 0" result="hardAlpha"/>
<feOffset dy="4"/>
<feGaussianBlur stdDeviation="2"/>
<feComposite in2="hardAlpha" operator="out"/>
<feColorMatrix type="matrix" values="0 0 0 0 0 0 0 0 0 0 0 0 0 0 0 0 0 0 0.25 0"/>
<feBlend mode="normal" in2="BackgroundImageFix" result="effect1_dropShadow_73_3645"/>
<feBlend mode="normal" in="SourceGraphic" in2="effect1_dropShadow_73_3645" result="shape"/>
</filter>
</defs>
</svg>
