<svg width="64" height="21" viewBox="0 0 64 21" fill="none" xmlns="http://www.w3.org/2000/svg">
<path d="M0.0255639 5.68138C-0.000101313 6.76268 0.394764 7.18848 0.711793 7.53096C0.812981 7.64161 0.901337 7.73628 0.968235 7.84841C1.11739 8.09938 1.22362 8.41115 1.28379 8.77551C2.5904 16.696 2.8845 17.7756 6.19994 19.5219C7.78698 20.3585 11.0502 20.9196 14.3192 20.9196C16.8683 20.9196 20.5502 20.584 23.6121 18.9869C28.073 16.6592 29.7352 8.62425 29.8132 8.21992C29.8176 8.17911 29.9493 7.22045 31.9874 7.22045H31.9895L32.1142 7.2194C34.0475 7.2194 34.1807 8.17911 34.1948 8.28261C34.2634 8.62425 35.9259 16.6579 40.3866 18.9869C43.4488 20.5851 47.1307 20.9196 49.6798 20.9196C52.9487 20.9196 56.2113 20.3573 57.7986 19.5219C61.1144 17.7756 61.4086 16.6949 62.7145 8.77446C62.7745 8.41115 62.8814 8.09959 63.0305 7.84757C63.097 7.73544 63.1851 7.64056 63.2865 7.52991C63.6036 7.18742 63.9991 6.76037 63.973 5.68033C63.9685 5.49941 63.9763 5.17754 63.9839 4.82475C63.9969 4.28599 64.0089 3.67928 63.9904 3.35237C63.8968 1.75039 62.4793 1.09803 61.766 0.98191C57.2049 0.0451294 51.729 -0.226248 45.948 0.188813L45.6461 0.21027C42.1199 0.45977 40.1777 0.596932 37.863 1.63343C37.326 1.8743 36.7735 2.14652 36.2844 2.3977C35.4141 2.846 34.1571 3.33238 33.4816 3.48048C33.2098 3.54107 32.9343 3.60039 32.6902 3.64941C32.3389 3.72072 31.6592 3.72072 31.3079 3.64941C31.0639 3.59934 30.7883 3.54107 30.5158 3.48048C29.842 3.33238 28.5851 2.846 27.7141 2.3977C27.2254 2.14673 26.6732 1.8743 26.1357 1.63343C23.821 0.596932 21.8793 0.45977 18.3531 0.21027L18.0507 0.188813C12.2681 -0.224986 6.78435 0.0472334 2.25549 0.978544C1.52067 1.09888 0.104032 1.75145 0.0104172 3.35342C-0.00977836 3.68012 0.00347499 4.28704 0.0158869 4.82559C0.022198 5.17965 0.0297713 5.50214 0.0255639 5.68138ZM62.6598 3.71336V4.89859L61.1837 4.30619L62.6598 3.71336ZM37.0632 5.41379C37.2866 4.85925 38.6927 3.01199 47.4162 2.50415C48.9456 2.41538 50.2429 2.37183 51.3825 2.37183C56.5263 2.37183 58.1634 3.29662 59.1372 4.78794C59.7201 5.68012 60.1165 7.54653 60.1209 8.72965C60.1318 11.3134 59.6122 15.906 56.0296 17.6424C54.3879 18.4376 51.9261 18.9126 49.4456 18.9126C44.6841 18.9126 40.8781 17.2938 39.2668 14.5836C35.8767 8.88932 37.0216 5.50867 37.0632 5.41379ZM4.85883 4.78709C5.8339 3.29515 7.47058 2.37099 12.6137 2.37099C13.7537 2.37099 15.0511 2.41453 16.5805 2.50331C25.302 3.01199 26.7096 4.85946 26.9595 5.47837C26.973 5.50888 28.1185 8.89079 24.7319 14.5841C23.119 17.2943 19.3142 18.9131 14.5533 18.9131C12.0718 18.9131 9.60984 18.438 7.96769 17.6428C4.38486 15.9064 3.86588 11.3138 3.87619 8.73007C3.88061 7.54526 4.27652 5.67928 4.85883 4.78709ZM1.33533 3.71336L2.81087 4.30598L1.33533 4.89838V3.71336Z" fill="#268237"/>
</svg>
