<svg width="12" height="9" viewBox="0 0 12 9" fill="none" xmlns="http://www.w3.org/2000/svg">
<path d="M11.6624 0.253045C11.7258 0.149784 11.6098 0.0403816 11.4033 0.00865997C11.1967 -0.0230225 10.9779 0.0349447 10.9145 0.138187L7.19438 6.19406L3.47419 0.138187C3.41079 0.0349643 3.19202 -0.0229443 2.98546 0.00865997C2.77894 0.0403816 2.66296 0.149804 2.72641 0.253045L6.78521 6.86016L6.00003 8.13833L1.08545 0.138187C1.02201 0.0349447 0.803163 -0.0230225 0.596718 0.00865997C0.390195 0.0403816 0.274221 0.149784 0.337665 0.253045L5.6261 8.86185C5.67656 8.94395 5.82824 8.99998 6.00003 8.99998C6.17182 8.99998 6.3235 8.94395 6.37396 8.86185C6.43345 8.76492 11.5565 0.425383 11.6624 0.253045Z" fill="#268237"/>
</svg>
