<svg width="12" height="9" viewBox="0 0 12 9" fill="none" xmlns="http://www.w3.org/2000/svg">
<path d="M11.342 0.253045C11.4054 0.149784 11.2895 0.0403816 11.083 0.00865997C10.8764 -0.0230225 10.6576 0.0349447 10.5942 0.138187L6.87407 6.19406L3.15388 0.138187C3.09048 0.0349643 2.87171 -0.0229443 2.66515 0.00865997C2.45863 0.0403816 2.34265 0.149804 2.40609 0.253045L6.4649 6.86016L5.67972 8.13833L0.765137 0.138187C0.701694 0.0349447 0.48285 -0.0230225 0.276405 0.00865997C0.0698825 0.0403816 -0.0460911 0.149784 0.0173521 0.253045L5.30579 8.86185C5.35624 8.94395 5.50793 8.99998 5.67972 8.99998C5.85151 8.99998 6.00319 8.94395 6.05365 8.86185C6.11314 8.76492 11.2362 0.425383 11.342 0.253045Z" fill="black"/>
</svg>
