<svg width="64" height="21" viewBox="0 0 64 21" fill="none" xmlns="http://www.w3.org/2000/svg">
<path d="M0.0255639 5.70322C-0.000101313 6.78868 0.394764 7.21611 0.711793 7.55991C0.812981 7.67099 0.901337 7.76602 0.968235 7.87858C1.11739 8.13052 1.22362 8.44349 1.28379 8.80925C2.5904 16.7602 2.8845 17.8439 6.19994 19.5969C7.78698 20.4368 11.0502 21 14.3192 21C16.8683 21 20.5502 20.6632 23.6121 19.0599C28.073 16.7232 29.7352 8.65741 29.8132 8.25152C29.8176 8.21055 29.9493 7.24821 31.9874 7.24821H31.9895L32.1142 7.24715C34.0475 7.24715 34.1807 8.21055 34.1948 8.31445C34.2634 8.65741 35.9259 16.7219 40.3866 19.0599C43.4488 20.6642 47.1307 21 49.6798 21C52.9487 21 56.2113 20.4355 57.7986 19.5969C61.1144 17.8439 61.4086 16.7591 62.7145 8.80819C62.7745 8.44348 62.8814 8.13073 63.0305 7.87774C63.097 7.76518 63.1851 7.66993 63.2865 7.55885C63.6036 7.21505 63.9991 6.78636 63.973 5.70217C63.9685 5.52055 63.9763 5.19745 63.9839 4.8433C63.9969 4.30247 64.0089 3.69343 63.9904 3.36526C63.8968 1.75712 62.4793 1.10226 61.766 0.985685C57.2049 0.0453029 51.729 -0.227118 45.948 0.189539L45.6461 0.211079C42.1199 0.461538 40.1777 0.599226 37.863 1.63971C37.326 1.88151 36.7735 2.15477 36.2844 2.40692C35.4141 2.85695 34.1571 3.34519 33.4816 3.49386C33.2098 3.55468 32.9343 3.61423 32.6902 3.66344C32.3389 3.73503 31.6592 3.73503 31.3079 3.66344C31.0639 3.61318 30.7883 3.55468 30.5158 3.49386C29.842 3.34519 28.5851 2.85695 27.7141 2.40692C27.2254 2.15499 26.6732 1.88151 26.1357 1.63971C23.821 0.599226 21.8793 0.461538 18.3531 0.211079L18.0507 0.189539C12.2681 -0.225851 6.78435 0.0474149 2.25549 0.982306C1.52067 1.1031 0.104032 1.75818 0.0104172 3.36631C-0.00977836 3.69427 0.00347499 4.30352 0.0158869 4.84414C0.022198 5.19956 0.0297713 5.5233 0.0255639 5.70322ZM62.6598 3.72764V4.91742L61.1837 4.32274L62.6598 3.72764ZM37.0632 5.4346C37.2866 4.87793 38.6927 3.02357 47.4162 2.51378C48.9456 2.42466 50.2429 2.38095 51.3825 2.38095C56.5263 2.38095 58.1634 3.30929 59.1372 4.80634C59.7201 5.70195 60.1165 7.57554 60.1209 8.76321C60.1318 11.3569 59.6122 15.9672 56.0296 17.7102C54.3879 18.5085 51.9261 18.9853 49.4456 18.9853C44.6841 18.9853 40.8781 17.3603 39.2668 14.6397C35.8767 8.9235 37.0216 5.52984 37.0632 5.4346ZM4.85883 4.8055C5.8339 3.30781 7.47058 2.3801 12.6137 2.3801C13.7537 2.3801 15.0511 2.42382 16.5805 2.51293C25.302 3.02357 26.7096 4.87814 26.9595 5.49943C26.973 5.53005 28.1185 8.92497 24.7319 14.6401C23.119 17.3607 19.3142 18.9858 14.5533 18.9858C12.0718 18.9858 9.60984 18.5089 7.96769 17.7107C4.38486 15.9676 3.86588 11.3573 3.87619 8.76363C3.88061 7.57427 4.27652 5.70111 4.85883 4.8055ZM1.33533 3.72764L2.81087 4.32253L1.33533 4.91721V3.72764Z" fill="white"/>
</svg>
