<svg width="30" height="29" viewBox="0 0 30 29" fill="none" xmlns="http://www.w3.org/2000/svg">
<path d="M29.512 0.460193C28.8612 -0.153398 27.8061 -0.153398 27.1553 0.460193L15 11.9209L2.84472 0.460193C2.19395 -0.153398 1.13884 -0.153398 0.488083 0.460193C-0.162694 1.07377 -0.162694 2.06859 0.488083 2.68216L12.6434 14.1429L0.488116 25.6035C-0.162661 26.2172 -0.162661 27.2119 0.488116 27.8256C1.13888 28.4391 2.19399 28.4391 2.84475 27.8256L15 16.3648L27.1553 27.8256C27.8061 28.4391 28.8612 28.4391 29.512 27.8256C30.1627 27.2119 30.1627 26.2172 29.512 25.6037L17.3566 14.1429L29.512 2.68216C30.1627 2.06859 30.1627 1.07377 29.512 0.460193Z" fill="black"/>
</svg>
