<svg width="32" height="30" viewBox="0 0 32 30" fill="none" xmlns="http://www.w3.org/2000/svg">
<path d="M25.7879 0H6.21117C4.45405 0 3.0293 1.33564 3.0293 2.98342V27.1922C3.0293 27.9603 3.36448 28.6951 3.95736 29.2247C4.55117 29.7547 5.35036 30.0339 6.16823 29.9967L24.0578 29.1857V29.1853C24.7235 29.18 25.3622 29.0513 25.9429 28.8207C26.8336 28.4675 27.5889 27.8793 28.123 27.1379C28.6579 26.397 28.9707 25.4981 28.9707 24.5383V2.98342C28.9707 1.33564 27.5459 0 25.7879 0ZM27.122 24.5384C27.1211 24.9436 27.0343 25.3243 26.8774 25.6727C26.6421 26.1945 26.2463 26.6416 25.7495 26.9559C25.2528 27.2706 24.66 27.4527 24.013 27.453C23.6059 27.4526 23.2026 27.3616 22.816 27.1778C22.2372 26.9021 21.6919 26.4128 21.2849 25.695C20.8778 24.9782 20.6117 24.0333 20.6117 22.8717V22.3545C20.6117 22.1772 20.5165 22.0122 20.3587 21.9146C20.2009 21.8175 20.0011 21.8008 19.8284 21.8713L5.92361 27.4881C5.69205 27.5814 5.42598 27.5599 5.21498 27.43C5.00486 27.2999 4.87792 27.0794 4.87792 26.8435V3.13746C4.87792 2.36197 5.5483 1.7335 6.37548 1.7335H25.6235C26.4507 1.7335 27.122 2.36197 27.122 3.13746V24.5384H27.122Z" fill="black"/>
<path d="M17.6324 10.3963C16.3267 9.80507 15.2236 8.47107 15.2236 8.47107V9.35947V16.6319C14.8165 16.4914 14.3347 16.4498 13.8376 16.5395C12.6449 16.7545 11.8242 17.6367 12.003 18.5089C12.1822 19.3816 13.2942 19.9143 14.487 19.6985C15.5457 19.5077 16.3099 18.7908 16.343 18.0214H16.3491V11.6545C19.7742 12.0466 19.2116 14.3194 18.975 14.9859C20.9487 12.9127 19.9227 11.4322 17.6324 10.3963Z" fill="black"/>
</svg>
